<?xml version="1.0" standalone="no"?>
<!DOCTYPE svg PUBLIC "-//W3C//DTD SVG 20010904//EN"
 "http://www.w3.org/TR/2001/REC-SVG-20010904/DTD/svg10.dtd">
<svg version="1.0" xmlns="http://www.w3.org/2000/svg"
 width="215.000000pt" height="215.000000pt" viewBox="0 0 215.000000 215.000000"
 preserveAspectRatio="xMidYMid meet">
<metadata>
Created by potrace 1.11, written by Peter Selinger 2001-2013
</metadata>
<g transform="translate(0.000000,215.000000) scale(0.100000,-0.100000)"
fill="#000000" stroke="none">
<path d="M160 1600 c-4 -3 -7 -31 -6 -64 l1 -59 47 -2 c53 -2 63 2 65 28 0 9
1 22 2 28 1 7 25 9 69 7 61 -3 67 -5 68 -25 1 -13 2 -26 3 -31 0 -4 92 -7 204
-7 l202 0 -1 -25 c-1 -14 -2 -27 -3 -30 -2 -10 -71 -5 -71 5 0 7 -3 7 -8 0 -4
-5 -28 -10 -54 -10 -27 0 -49 -4 -50 -8 -1 -5 25 -62 57 -128 32 -65 55 -122
51 -126 -4 -4 -151 -8 -327 -8 l-319 0 0 -45 0 -45 530 0 530 1 0 -38 0 -38
-155 0 c-85 0 -155 -3 -155 -6 0 -4 38 -85 85 -180 47 -95 85 -177 85 -182 0
-6 -75 -9 -180 -8 -113 1 -180 -3 -181 -9 -1 -5 -1 -16 0 -22 1 -10 -19 -13
-74 -13 -73 0 -75 -1 -75 -25 0 -19 5 -25 23 -26 91 -2 939 0 941 2 1 2 75
153 165 334 90 182 169 333 175 337 6 4 8 8 3 8 -4 0 3 19 15 43 12 23 21 45
20 50 -1 4 2 7 8 7 5 0 10 4 10 10 0 5 32 74 70 151 39 78 69 144 66 146 -8 8
-387 6 -394 -2 -4 -4 -8 -10 -8 -13 -6 -27 -18 -52 -25 -52 -5 0 -9 -3 -8 -7
2 -16 -14 -53 -22 -53 -5 0 -8 -3 -7 -7 2 -8 -192 -404 -202 -413 -4 -3 -12
-21 -20 -40 -8 -19 -21 -47 -30 -62 -16 -26 -16 -25 -184 310 -93 186 -170
338 -172 340 -4 6 -755 7 -764 2z"/>
<path d="M410 1434 c0 -7 -43 -10 -126 -10 -69 1 -127 -1 -129 -4 -1 -3 9 -30
24 -60 l26 -55 208 -1 c114 0 207 3 207 7 0 14 -34 84 -45 91 -7 5 -7 8 0 8 6
0 5 4 -2 8 -6 4 -42 6 -80 6 -41 -1 -71 3 -75 10 -5 7 -8 7 -8 0z"/>
<path d="M248 842 c-16 -2 -28 -5 -28 -6 0 -2 16 -38 35 -80 l36 -76 283 0
c280 0 284 0 279 20 -3 11 -9 23 -14 26 -5 3 -9 14 -9 25 0 10 -4 19 -10 19
-5 0 -10 8 -10 18 -1 22 -22 50 -40 52 -8 1 -48 2 -87 1 -53 -1 -72 -5 -70
-13 1 -7 5 -15 8 -18 4 -3 9 -14 13 -26 6 -21 4 -21 -115 -21 l-122 1 -16 37
c-15 34 -20 38 -61 41 -25 2 -57 2 -72 0z"/>
</g>
</svg>
